<svg xmlns="http://www.w3.org/2000/svg" id="Capa_1" height="512" viewBox="0 0 512 512" width="512"><path d="M145.54 426.635c-41.511-34.852-67.596-85.724-71.57-139.571L56.705 53.125a2.452 2.452 0 0 1 .854-2.07 2.454 2.454 0 0 1 2.169-.553l29.429 6.44a188.104 188.104 0 0 0 40.146 4.336c40.619 0 79.237-12.806 111.68-37.032l10.457-7.809c2.639-1.97 6.325-1.97 8.963 0l10.457 7.808a188.152 188.152 0 0 0 29.303 17.975 7.489 7.489 0 0 0 10.029-3.408 7.489 7.489 0 0 0-3.407-10.029 172.963 172.963 0 0 1-26.963-16.54l-10.457-7.809c-7.916-5.91-18.972-5.91-26.889 0l-10.458 7.809c-29.834 22.28-65.353 34.056-102.717 34.056a173.122 173.122 0 0 1-36.944-3.989l-29.43-6.441c-5.443-1.19-10.978.22-15.187 3.871s-6.387 8.931-5.977 14.488l17.265 233.94c4.269 57.854 32.29 112.506 76.876 149.942a7.464 7.464 0 0 0 4.812 1.754 7.473 7.473 0 0 0 5.74-2.674 7.489 7.489 0 0 0-.916-10.555z" data-original="#000000" class="active-path" data-old_color="#000000" fill="#5F318C"/><path d="M396.975 114.683c-3.688-4.216-9.419-3.55-14.434-3.474-42.087 0-83.323-11.12-119.25-32.156a14.594 14.594 0 0 0-14.736 0c-35.927 21.036-77.163 32.156-119.251 32.156-4.948-.102-10.62-.658-14.208 3.495a11.507 11.507 0 0 0-3.131 8.76l9 122.303-2.996 9.221h-20.19c-4.901 0-9.21 3.132-10.724 7.792a11.246 11.246 0 0 0 4.096 12.606l16.334 11.868-6.239 19.202a11.246 11.246 0 0 0 4.096 12.607 11.244 11.244 0 0 0 13.256 0l10.041-7.295c9.933 36.456 33.433 68.431 65.377 88.577l53.715 33.878a15.474 15.474 0 0 0 8.257 2.372c2.861 0 5.723-.783 8.222-2.349l53.955-33.823c32.03-20.078 55.573-51.942 65.605-88.358l9.632 6.998a11.247 11.247 0 0 0 13.257 0 11.245 11.245 0 0 0 4.096-12.606l-6.239-19.203 16.333-11.867c3.965-2.88 5.611-7.946 4.097-12.607s-5.824-7.792-10.724-7.792h-20.19l-2.674-8.23 8.765-123.33a11.512 11.512 0 0 0-3.148-8.745zm-93.557 83.145l-21.69 15.758a12.925 12.925 0 0 0-4.708 14.486l8.285 25.499-21.691-15.76c-2.277-1.654-4.946-2.481-7.615-2.481s-5.338.827-7.615 2.482l-21.691 15.758 8.285-25.499a12.922 12.922 0 0 0-4.708-14.484l-21.69-15.759h26.811a12.924 12.924 0 0 0 12.322-8.954L256 163.377l8.285 25.498a12.925 12.925 0 0 0 12.322 8.954h26.811zm-184.951 78.89l-9.29-6.75h11.483c4.9 0 9.21-3.132 10.724-7.791l3.548-10.92 3.548 10.92a11.248 11.248 0 0 0 10.724 7.791h11.483l-9.289 6.749a11.243 11.243 0 0 0-4.097 12.607l3.548 10.921-9.289-6.749a11.246 11.246 0 0 0-13.256 0l-9.289 6.749 3.548-10.921a11.245 11.245 0 0 0-4.096-12.606zm191.741 111.014l-46.676 29.259V292.337c0-4.137-3.353-7.49-7.49-7.49s-7.49 3.353-7.49 7.49v124.695l-46.546-29.357c-26.791-16.897-46.989-43.035-56.878-73.07l6.137 4.459a11.25 11.25 0 0 0 13.256.001 11.25 11.25 0 0 0 4.097-12.607l-6.239-19.203 16.333-11.867c3.964-2.88 5.611-7.946 4.097-12.607s-5.824-7.792-10.724-7.792h-20.19l-6.24-19.202a11.247 11.247 0 0 0-10.724-7.792c-.078 0-.154.008-.232.009l-7.514-101.823c.709.006 1.417.009 2.118.009 41.818 0 82.858-10.335 119.249-29.955v49.991a12.931 12.931 0 0 0-4.875 6.6l-9.755 30.023h-31.567a12.926 12.926 0 0 0-12.323 8.953 12.924 12.924 0 0 0 4.707 14.485l25.539 18.555-9.755 30.023a12.925 12.925 0 0 0 4.707 14.486 12.924 12.924 0 0 0 15.23-.001L256 250.795l25.539 18.555a12.925 12.925 0 0 0 15.231.001 12.925 12.925 0 0 0 4.707-14.486l-9.755-30.023 25.539-18.555a12.925 12.925 0 0 0 4.707-14.485 12.925 12.925 0 0 0-12.323-8.953h-31.567l-9.755-30.023a12.923 12.923 0 0 0-4.79-6.543V96.361c36.331 19.537 77.282 29.828 119.009 29.828.785 0 1.575-.004 2.368-.012l-7.238 101.841c-.201-.011-.401-.024-.604-.024-4.9 0-9.21 3.132-10.724 7.792l-6.24 19.202h-20.19c-4.901 0-9.21 3.132-10.724 7.792a11.247 11.247 0 0 0 4.097 12.606l16.334 11.868-6.239 19.203a11.247 11.247 0 0 0 4.097 12.607 11.246 11.246 0 0 0 13.255-.001l6.782-4.927c-9.88 30.295-30.23 56.621-57.308 73.596zm92.615-117.763l-9.287 6.748a11.246 11.246 0 0 0-4.099 12.608l3.548 10.921-9.287-6.748a11.26 11.26 0 0 0-6.63-2.162 11.26 11.26 0 0 0-6.628 2.161l-9.289 6.749 3.547-10.919a11.243 11.243 0 0 0-4.096-12.608l-9.29-6.75h11.483c4.9 0 9.21-3.132 10.724-7.791l3.548-10.92 3.548 10.92a11.248 11.248 0 0 0 10.724 7.791z" data-original="#000000" class="active-path" data-old_color="#000000" fill="#5F318C"/><path d="M464.118 39.692c-4.21-3.64-9.742-5.042-15.175-3.848l-29.361 6.444a173.112 173.112 0 0 1-37.04 4.009c-14.659 0-29.172-1.824-43.134-5.42-4.007-1.037-8.09 1.378-9.122 5.384s1.379 8.09 5.384 9.122c15.183 3.912 30.952 5.894 46.871 5.894a188.06 188.06 0 0 0 40.252-4.358l29.362-6.444a2.45 2.45 0 0 1 2.167.55c.354.305.935.98.858 2.067l-16.579 233.285c-4.54 63.887-39.648 122.337-93.915 156.356l-84.814 53.166a7.526 7.526 0 0 1-7.973-.011l-77.972-49.177a7.49 7.49 0 1 0-7.991 12.671l77.972 49.177a22.468 22.468 0 0 0 11.987 3.443c4.153 0 8.308-1.137 11.934-3.41l84.814-53.166c58.304-36.548 96.024-99.348 100.901-167.987l16.579-233.285c.394-5.552-1.795-10.824-6.005-14.462zM55.323 349.996H41.479a2.292 2.292 0 0 1-2.179-1.583l-4.278-13.166c-.686-2.11-3.671-2.11-4.357 0l-4.278 13.166a2.29 2.29 0 0 1-2.179 1.583H10.365c-2.219 0-3.142 2.839-1.346 4.144l11.2 8.137a2.29 2.29 0 0 1 .832 2.561l-4.278 13.166c-.686 2.11 1.73 3.865 3.525 2.561l11.2-8.137a2.292 2.292 0 0 1 2.693 0l11.2 8.137c1.795 1.304 4.211-.451 3.525-2.561l-4.278-13.166a2.29 2.29 0 0 1 .832-2.561l11.2-8.137c1.795-1.305.872-4.144-1.347-4.144zm446.312 0h-13.844a2.292 2.292 0 0 1-2.179-1.583l-4.278-13.166c-.686-2.11-3.671-2.11-4.357 0l-4.278 13.166a2.29 2.29 0 0 1-2.179 1.583h-13.844c-2.219 0-3.142 2.839-1.346 4.144l11.2 8.137a2.29 2.29 0 0 1 .832 2.561l-4.278 13.166c-.686 2.11 1.73 3.865 3.525 2.561l11.2-8.137a2.292 2.292 0 0 1 2.693 0l11.2 8.137c1.795 1.304 4.211-.451 3.525-2.561l-4.278-13.166a2.29 2.29 0 0 1 .832-2.561l11.2-8.137c1.796-1.305.873-4.144-1.346-4.144z" data-original="#000000" class="active-path" data-old_color="#000000" fill="#5F318C"/></svg>