<svg xmlns="http://www.w3.org/2000/svg" xmlns:xlink="http://www.w3.org/1999/xlink" version="1.1" id="Capa_1" x="0" y="0" viewBox="0 0 398.72 398.72" xml:space="preserve" width="512" height="512"><path d="M167.52 156.62l-8.84-2.2-4.8-7.56a1.087 1.087 0 0 0-.36-.36 1.12 1.12 0 0 0-1.547.339l-.013.021-4.6 7.56-8.68 2.2a1.084 1.084 0 0 0-.44.24 1.12 1.12 0 0 0 0 1.56l5.72 6.88-.6 8.96a1.176 1.176 0 0 0 0 .48 1.12 1.12 0 0 0 1.44.64l8.32-3.32 8.24 3.28a1.12 1.12 0 0 0 1.6-1.08l-.6-8.96 5.68-6.84c.132-.134.229-.299.28-.48a1.12 1.12 0 0 0-.8-1.36zm-50-44.08l-8.76-2.04-4.8-7.56a1.12 1.12 0 0 0-1.88 0l-4.8 7.56-8.68 2.2a1.119 1.119 0 0 0-.599 1.8l5.76 6.88-.6 8.96a1.12 1.12 0 0 0 1.52 1.12l8.32-3.32 8.36 3.24c.184.047.376.047.56 0a1.119 1.119 0 0 0 1.04-1.194v-.006l-.6-8.96 5.68-6.84c.132-.134.228-.299.28-.48a1.122 1.122 0 0 0-.801-1.36zm49.84.04l-8.68-2.08-4.8-7.56a1.087 1.087 0 0 0-.36-.36 1.12 1.12 0 0 0-1.547.339l-.013.021-4.6 7.56-8.68 2.2a1.119 1.119 0 0 0-.599 1.8l5.72 6.88-.6 8.96a1.142 1.142 0 0 0 0 .48 1.12 1.12 0 0 0 1.44.64l8.32-3.32 8.24 3.28c.184.047.376.047.56 0a1.119 1.119 0 0 0 1.04-1.194v-.006l-.6-8.96 5.68-6.84c.132-.134.228-.299.28-.48a1.122 1.122 0 0 0-.801-1.36z" data-original="#000000" class="active-path" data-old_color="#000000" fill="#5F318C"/><path d="M392.04 71.74H6.72A6.72 6.72 0 0 0 0 78.46v241.8a6.72 6.72 0 0 0 6.72 6.72H392a6.72 6.72 0 0 0 6.72-6.72V78.5a6.72 6.72 0 0 0-6.68-6.76zM13.44 85.22h179.2v107.44H13.44V85.22zm372 228.32h-372V286.9h372v26.64zm0-40h-372V246.5h372v27.04zm0-40.4h-372V206.1h372v27.04zm-179.36-40.4V165.7h179.16l.2 27.04H206.08zm0-40.4v-27h179.16l.2 27H206.08zm0-40.4V85.22h179.16l.2 26.72H206.08z" data-original="#000000" class="active-path" data-old_color="#000000" fill="#5F318C"/><path d="M67.52 156.66l-8.68-2.24-4.76-7.56a1.125 1.125 0 0 0-.36-.36 1.12 1.12 0 0 0-1.547.339l-.013.021-4.8 7.56-8.68 2.2a1.084 1.084 0 0 0-.44.24 1.12 1.12 0 0 0 0 1.56l5.72 6.88-.6 8.96a1.12 1.12 0 0 0 1.52 1.12l8.32-3.32 8.16 3.32a1.12 1.12 0 0 0 1.6-1.08l-.6-8.96 5.68-6.84c.132-.134.228-.299.28-.48a1.12 1.12 0 0 0-.8-1.36zm0-44.12l-8.68-2.04-4.76-7.56a1.12 1.12 0 0 0-1.88 0l-4.84 7.56-8.68 2.2a1.119 1.119 0 0 0-.599 1.8l5.72 6.88-.44 8.96a1.12 1.12 0 0 0 1.52 1.12l8.32-3.32 8.16 3.24c.184.047.376.047.56 0a1.119 1.119 0 0 0 1.04-1.194v-.006l-.6-8.96 5.68-6.84c.132-.134.228-.299.28-.48a1.122 1.122 0 0 0-.801-1.36zm50 44.12l-8.76-2.24-4.8-7.56a1.125 1.125 0 0 0-.36-.36 1.12 1.12 0 0 0-1.547.339l-.013.021-4.8 7.56-8.68 2.2a1.084 1.084 0 0 0-.44.24 1.12 1.12 0 0 0 0 1.56l5.72 6.88-.6 8.96a1.12 1.12 0 0 0 1.52 1.12l8.32-3.32 8.28 3.32a1.12 1.12 0 0 0 1.6-1.08l-.6-8.96 5.68-6.84c.132-.134.228-.299.28-.48a1.12 1.12 0 0 0-.8-1.36z" data-original="#000000" class="active-path" data-old_color="#000000" fill="#5F318C"/></svg>