<svg width="69" height="13" viewBox="0 0 69 13" fill="none" xmlns="http://www.w3.org/2000/svg">
<path fill-rule="evenodd" clip-rule="evenodd" d="M61.6753 0.792608C62.0944 -0.0155873 63.1374 -0.0155851 63.5565 0.792609L64.8401 3.26765C64.9584 3.49579 65.1629 3.65147 65.3959 3.69086L67.5273 4.05106C68.4563 4.20808 68.7822 5.52062 68.0587 6.19136L66.5058 7.63098C66.2878 7.83304 66.1853 8.15177 66.2382 8.4629L66.6732 11.019C66.8436 12.0203 65.9043 12.7983 65.0982 12.3234L62.9778 11.0741C62.7513 10.9407 62.4805 10.9407 62.254 11.0741L60.1336 12.3234C59.3276 12.7983 58.3882 12.0203 58.5586 11.019L58.9936 8.4629C59.0465 8.15177 58.944 7.83304 58.726 7.63098L57.1731 6.19136C56.4496 5.52062 56.7755 4.20808 57.7045 4.05106L59.8359 3.69086C60.069 3.65147 60.2734 3.49579 60.3917 3.26765L61.6753 0.792608Z" fill="#F5B841"/>
<path fill-rule="evenodd" clip-rule="evenodd" d="M47.5134 0.792608C47.9325 -0.0155873 48.9756 -0.0155851 49.3947 0.792609L50.6782 3.26765C50.7965 3.49579 51.001 3.65147 51.2341 3.69086L53.3654 4.05106C54.2945 4.20808 54.6204 5.52062 53.8968 6.19136L52.3439 7.63098C52.1259 7.83304 52.0234 8.15177 52.0764 8.4629L52.5114 11.019C52.6818 12.0203 51.7424 12.7983 50.9364 12.3234L48.816 11.0741C48.5894 10.9407 48.3187 10.9407 48.0921 11.0741L45.9717 12.3234C45.1657 12.7983 44.2263 12.0203 44.3967 11.019L44.8317 8.4629C44.8846 8.15177 44.7822 7.83304 44.5642 7.63098L43.0112 6.19136C42.2877 5.52062 42.6136 4.20808 43.5427 4.05106L45.674 3.69086C45.9071 3.65147 46.1116 3.49579 46.2299 3.26765L47.5134 0.792608Z" fill="#F5B841"/>
<path fill-rule="evenodd" clip-rule="evenodd" d="M33.3532 0.792608C33.7723 -0.0155873 34.8154 -0.0155851 35.2345 0.792609L36.518 3.26765C36.6363 3.49579 36.8408 3.65147 37.0739 3.69086L39.2053 4.05106C40.1343 4.20808 40.4602 5.52062 39.7367 6.19136L38.1837 7.63098C37.9658 7.83304 37.8633 8.15177 37.9162 8.4629L38.3512 11.019C38.5216 12.0203 37.5822 12.7983 36.7762 12.3234L34.6558 11.0741C34.4293 10.9407 34.1585 10.9407 33.932 11.0741L31.8116 12.3234C31.0055 12.7983 30.0661 12.0203 30.2365 11.019L30.6715 8.4629C30.7245 8.15177 30.622 7.83304 30.404 7.63098L28.8511 6.19136C28.1275 5.52062 28.4534 4.20808 29.3825 4.05106L31.5138 3.69086C31.7469 3.65147 31.9514 3.49579 32.0697 3.26765L33.3532 0.792608Z" fill="#F5B841"/>
<path fill-rule="evenodd" clip-rule="evenodd" d="M19.1914 0.792608C19.6105 -0.0155873 20.6535 -0.0155851 21.0727 0.792609L22.3562 3.26765C22.4745 3.49579 22.679 3.65147 22.912 3.69086L25.0434 4.05106C25.9725 4.20808 26.2983 5.52062 25.5748 6.19136L24.0219 7.63098C23.8039 7.83304 23.7014 8.15177 23.7544 8.4629L24.1894 11.019C24.3598 12.0203 23.4204 12.7983 22.6143 12.3234L20.4939 11.0741C20.2674 10.9407 19.9966 10.9407 19.7701 11.0741L17.6497 12.3234C16.8437 12.7983 15.9043 12.0203 16.0747 11.019L16.5097 8.4629C16.5626 8.15177 16.4601 7.83304 16.2422 7.63098L14.6892 6.19136C13.9657 5.52062 14.2916 4.20808 15.2206 4.05106L17.352 3.69086C17.5851 3.65147 17.7896 3.49579 17.9079 3.26765L19.1914 0.792608Z" fill="#F5B841"/>
<path fill-rule="evenodd" clip-rule="evenodd" d="M5.02926 0.792608C5.44837 -0.0155873 6.49144 -0.0155851 6.91055 0.792609L8.19406 3.26765C8.31237 3.49579 8.51686 3.65147 8.74994 3.69086L10.8813 4.05106C11.8104 4.20808 12.1362 5.52062 11.4127 6.19136L9.85976 7.63098C9.64179 7.83304 9.5393 8.15177 9.59225 8.4629L10.0273 11.019C10.1976 12.0203 9.25825 12.7983 8.45223 12.3234L6.33182 11.0741C6.10529 10.9407 5.83452 10.9407 5.60799 11.0741L3.48758 12.3234C2.68156 12.7983 1.74216 12.0203 1.91256 11.019L2.34756 8.4629C2.40051 8.15177 2.29802 7.83304 2.08005 7.63098L0.527114 6.19136C-0.196428 5.52062 0.129461 4.20808 1.05852 4.05106L3.18987 3.69086C3.42295 3.65147 3.62744 3.49579 3.74575 3.26765L5.02926 0.792608Z" fill="#F5B841"/>
</svg>
