<svg xmlns="http://www.w3.org/2000/svg" id="Capa_1" height="512" viewBox="0 0 512 512" width="512"><path d="M187.745 454.093a7.505 7.505 0 0 0-9.243 5.225c-3.729 13.428-9.221 25.101-16.322 34.695-2.252 2.154-5.349 4.72-10.651 1.591-3.375-2.498-4.088-7.276-1.591-10.651 35.04-47.342 12.402-135.854 11.414-139.623-1.199-4.516-28.787-111.186 21.95-161.923 17.572-17.573 43.891-27.638 78.225-29.919a7.509 7.509 0 0 0-.995-14.983c-38.07 2.528-67.627 14.063-87.848 34.283-38.257 38.257-37.279 102.827-32.177 142.366-35.924-4.675-92.625-5.96-131.349 22.701-10.029 7.424-12.149 21.623-4.727 31.654 6.929 9.354 21.041 12.349 31.653 4.726a62.746 62.746 0 0 1 6.06-3.943l99.675 99.674a62.753 62.753 0 0 1-3.95 6.052c-7.424 10.03-5.303 24.229 4.727 31.654 8.43 6.745 24.455 5.612 31.653-4.727 8.199-11.078 14.498-24.405 18.721-39.611a7.507 7.507 0 0 0-5.225-9.241zm-38.094-91.651c1.531 8.297 3.284 19.826 4.161 32.703l-36.87-36.869c12.878.878 24.406 2.63 32.709 4.166zm-122.5-.274c-2.09 1.654-7.284 2.462-10.65-1.59-2.498-3.375-1.784-8.154 1.591-10.651 36.153-26.757 91.674-24.079 124.792-19.287 1.312 7.357 2.566 12.899 3.307 15.963-29.824-4.868-85.291-9.414-119.04 15.565zm29.736 1.632c12.001-3.944 25.315-5.625 38.347-5.996l59.056 59.056c-.369 13.034-2.058 26.349-5.996 38.348z" data-original="#000000" class="active-path" data-old_color="#000000" fill="#5F318C"/><path d="M507.568 142.702c-7.421-10.029-21.621-12.149-31.653-4.728a61.86 61.86 0 0 1-6.063 3.941l-99.647-99.647a59.49 59.49 0 0 1 3.925-6.077 22.483 22.483 0 0 0 4.193-16.806 22.48 22.48 0 0 0-8.919-14.847A22.492 22.492 0 0 0 352.599.345a22.486 22.486 0 0 0-14.849 8.919c-28.572 38.604-27.315 95.334-22.666 131.336a317.966 317.966 0 0 0-17.907-1.846 7.503 7.503 0 0 0-8.036 6.941 7.508 7.508 0 0 0 6.941 8.035 305.304 305.304 0 0 1 21.354 2.331c.005.027.027.064.035.093 1.299 7.284 2.542 12.791 3.281 15.856v.006c-33.838-5.587-94.581-9.942-126.685 22.16-18.738 18.738-27.435 49.283-25.849 90.784 1.177 30.78 7.786 56.22 7.857 56.49.468 1.765 11.429 43.725 7.674 87.652a7.508 7.508 0 0 0 14.961 1.279c1.823-21.326.369-42.209-1.785-58.752 11.255 1.468 24.412 2.59 38.376 2.589 35.661 0 76.521-7.307 104.011-34.798 38.247-38.246 37.275-102.812 32.173-142.366 11.17 1.454 24.341 2.581 38.366 2.581 31.077-.001 66.304-5.533 92.987-25.281 10.034-7.424 12.153-21.623 4.73-31.652zm-52.5 5.665c-12.025 3.91-25.383 5.578-38.395 5.949l-58.721-58.72c.409-13.254 2.108-26.605 5.879-38.465zm-92.801 1.385c-1.643-8.975-3.193-20.305-3.944-32.55l36.654 36.654c-13.236-.881-24.881-2.666-32.71-4.104zm-92.42 33.525l58.922 58.922c-.387 12.536-1.994 26.069-5.971 38.372l-91.344-91.343c12.007-3.92 25.364-5.588 38.393-5.951zm54.397 4.602c1.527 8.259 3.267 19.746 4.112 32.671l-36.797-36.797c13.144.886 24.756 2.666 32.685 4.126zm-107.556 7.818l99.687 99.686c-2.523 4.423-5.516 8.487-9.064 12.034-3.968 3.968-8.551 7.262-13.575 9.98l-99.043-99.043c2.727-5.007 6.021-9.587 9.995-13.561 3.55-3.548 7.592-6.555 12-9.096zm-28.915 128.64c-1.451-7.835-3.101-18.55-4.03-30.557l34.523 34.522c-12.24-.926-23.007-2.588-30.493-3.965zm52.405 4.642l-57.141-57.141c.227-13.007 1.729-26.367 5.437-38.467l90.201 90.202c-12.129 3.685-25.519 5.172-38.497 5.406zm88.519-.176c-35.16 35.16-97.507 32.651-134.157 27.344-1.314-7.357-2.566-12.909-3.299-15.952 33.83 5.583 94.584 9.942 126.686-22.16 22.977-22.975 26.732-61.488 25.837-89.751-.998-31.53-7.774-57.262-7.84-57.509-1.067-4.022-25.675-99.112 13.896-152.577a7.568 7.568 0 0 1 4.996-3.001c5.186-.945 11.646 5.534 7.244 12.061-12.919 17.455-19.418 42.979-19.317 75.864.077 25.366 4.304 50.194 7.901 63.747 1.2 4.516 28.783 111.205-21.947 161.934zm165.211-166.517c-36.139 26.746-91.651 24.081-124.775 19.292-.01-.054-.033-.107-.046-.16-1.297-7.258-2.535-12.737-3.274-15.796v-.001c30.804 5.06 85.438 9.29 119.035-15.576 3.376-2.499 8.154-1.784 10.652 1.59 2.497 3.374 1.783 8.153-1.592 10.651z" data-original="#000000" class="active-path" data-old_color="#000000" fill="#5F318C"/></svg>