<svg width="20" height="20" viewBox="0 0 20 20" fill="none" xmlns="http://www.w3.org/2000/svg">
<path d="M10 0.76001C7.54941 0.76001 5.19918 1.73351 3.46634 3.46634C1.73351 5.19918 0.76001 7.54941 0.76001 10C0.76001 12.4506 1.73351 14.8008 3.46634 16.5337C5.19918 18.2665 7.54941 19.24 10 19.24C12.4506 19.24 14.8008 18.2665 16.5337 16.5337C18.2665 14.8008 19.24 12.4506 19.24 10C19.24 7.54941 18.2665 5.19918 16.5337 3.46634C14.8008 1.73351 12.4506 0.76001 10 0.76001ZM15.2679 13.3671L13.366 15.269L10 11.9019L6.63291 15.2679L4.73101 13.366L8.09921 10L4.73211 6.63291L6.63401 4.73211L10 8.09811L13.3671 4.73101L15.269 6.63291L11.9008 10L15.2679 13.3671Z" fill="#CF3434"/>
</svg>
