<svg xmlns="http://www.w3.org/2000/svg" viewBox="0 0 512 512" width="512" height="512"><g id="outline"><path d="M477.589 167.171l-22.333-15.745-.31-27.322a8 8 0 0 0-5.089-7.362l-25.449-9.937-6.815-26.457a8 8 0 0 0-6.7-5.935l-27.079-3.593-12.927-24.07a8.016 8.016 0 0 0-7.925-4.167l-27.162 3-18.34-20.263a7.994 7.994 0 0 0-8.7-2.136l-25.636 9.449-22.653-15.268a8 8 0 0 0-8.942 0l-22.656 15.268-25.638-9.45a8 8 0 0 0-8.7 2.137L176.2 45.579l-27.161-2.995a7.992 7.992 0 0 0-7.925 4.167l-12.927 24.07-27.087 3.593a8 8 0 0 0-6.7 5.936l-6.814 26.457-25.449 9.937a8 8 0 0 0-5.089 7.361l-.31 27.322-22.328 15.745a8 8 0 0 0-3.177 8.374l6.27 26.6L19.62 222.8a8 8 0 0 0-1.07 8.884L31.011 256 18.55 280.312a8 8 0 0 0 1.07 8.884l17.88 20.662-6.27 26.6a8 8 0 0 0 3.178 8.373l22.333 15.745.31 27.322a8 8 0 0 0 5.089 7.362l25.452 9.94 6.815 26.457a8 8 0 0 0 6.7 5.935l27.083 3.593 12.927 24.07a8.016 8.016 0 0 0 7.925 4.167l27.162-2.995 18.34 20.258a8 8 0 0 0 8.7 2.136l25.636-9.449 22.656 15.268a8 8 0 0 0 8.942 0l22.656-15.268 25.638 9.45a8.008 8.008 0 0 0 8.7-2.137l18.34-20.259 27.161 3a8 8 0 0 0 7.925-4.167l12.927-24.07 27.084-3.593a8 8 0 0 0 6.7-5.936l6.814-26.457 25.449-9.937a8 8 0 0 0 5.089-7.361l.31-27.322 22.333-15.745a8 8 0 0 0 3.177-8.374l-6.27-26.6L492.38 289.2a8 8 0 0 0 1.07-8.884L480.989 256l12.461-24.312a8 8 0 0 0-1.07-8.884l-17.88-20.662 6.27-26.6a8 8 0 0 0-3.181-8.371zm-.839 62.022l-11.869 23.159a7.991 7.991 0 0 0 0 7.3l11.869 23.159-17.026 19.671a8 8 0 0 0-1.738 7.071l5.968 25.316-21.26 14.989a8 8 0 0 0-3.389 6.447l-.3 26.014-24.237 9.464a8 8 0 0 0-4.836 5.457l-6.491 25.2-25.793 3.421a8 8 0 0 0-6 4.146l-12.3 22.913-25.856-2.852a8.009 8.009 0 0 0-6.807 2.583l-17.457 19.285-24.41-9a8.011 8.011 0 0 0-7.237.873L256 478.354l-21.581-14.543a8 8 0 0 0-7.237-.872l-24.408 9-17.457-19.284a8.012 8.012 0 0 0-6.807-2.583l-25.857 2.852L140.344 430a8 8 0 0 0-6-4.146l-25.792-3.421-6.492-25.2a8 8 0 0 0-4.836-5.456l-24.237-9.464L72.7 356.3a8 8 0 0 0-3.389-6.448l-21.26-14.988 5.967-25.317a7.994 7.994 0 0 0-1.738-7.07l-17.03-19.67 11.869-23.159a7.991 7.991 0 0 0 0-7.3L35.25 229.193l17.026-19.671a8 8 0 0 0 1.738-7.071l-5.968-25.316 21.26-14.989a8 8 0 0 0 3.389-6.447l.3-26.014 24.237-9.464a8 8 0 0 0 4.836-5.457l6.491-25.2 25.793-3.421a8 8 0 0 0 6-4.146l12.3-22.917 25.856 2.852a8.02 8.02 0 0 0 6.807-2.583l17.457-19.285 24.41 9a8.011 8.011 0 0 0 7.237-.873L256 33.646l21.581 14.543a8 8 0 0 0 7.237.872l24.408-9 17.457 19.284a8.016 8.016 0 0 0 6.807 2.583l25.857-2.852L371.656 82a8 8 0 0 0 6 4.146l25.792 3.421 6.492 25.2a8 8 0 0 0 4.836 5.456l24.237 9.464.287 26.013a8 8 0 0 0 3.389 6.448l21.26 14.988-5.967 25.317a7.994 7.994 0 0 0 1.738 7.07z" data-original="#000000" class="active-path" data-old_color="#000000" fill="#5F318C"/><path d="M400 256v.336h16V256a162.509 162.509 0 0 0-.862-16.71l-15.914 1.652A146.786 146.786 0 0 1 400 256zm-275.66 58.416l-14.621 6.5a160.486 160.486 0 0 0 7.6 14.927l13.86-7.994a144.357 144.357 0 0 1-6.839-13.433zm24.439 60.345a161.176 161.176 0 0 0 12.99 10.559l9.431-12.92a145.236 145.236 0 0 1-11.694-9.508zm214.255-215.095a145.482 145.482 0 0 1 9.493 11.714l12.938-9.414a161.908 161.908 0 0 0-10.54-13zM206.315 408.134a160.045 160.045 0 0 0 16.176 4.35l3.336-15.648a143.491 143.491 0 0 1-14.547-3.913zm190.57-182.074l15.654-3.311a159.737 159.737 0 0 0-4.324-16.185L393 211.5a143.423 143.423 0 0 1 3.885 14.56zm-9.285-28.622l14.613-6.514A159.893 159.893 0 0 0 394.6 176l-13.85 8.012a144.047 144.047 0 0 1 6.85 13.426zM239.026 415.109a162.471 162.471 0 0 0 16.709.89l.026-16a146.142 146.142 0 0 1-15.055-.8zm-99.646-74.617l-12.949 9.4a160.8 160.8 0 0 0 10.527 13.018l11.9-10.695a145.314 145.314 0 0 1-9.478-11.723zm223.71-203.371a161.154 161.154 0 0 0-13-10.547l-9.416 12.936a144.918 144.918 0 0 1 11.7 9.494zm-27.031-19.68a160.432 160.432 0 0 0-14.908-7.616l-6.523 14.61a144.437 144.437 0 0 1 13.415 6.854zm-124.481 1.538l-4.93-15.22a159.361 159.361 0 0 0-15.644 6l6.506 14.617a143.736 143.736 0 0 1 14.068-5.397zm29.443-6.21l-1.642-15.916a160.692 160.692 0 0 0-16.542 2.588l3.3 15.657a143.628 143.628 0 0 1 14.884-2.329zM272.8 96.871A162.463 162.463 0 0 0 256.089 96l-.008 16a146.433 146.433 0 0 1 15.055.785zm32.717 6.941a160.3 160.3 0 0 0-16.178-4.333l-3.322 15.651a144 144 0 0 1 14.552 3.9zm66.833 237.051l12.92 9.44a161 161 0 0 0 9.156-14.014l-13.832-8.041a144.874 144.874 0 0 1-8.244 12.615zm-44.572 40.001l7.989 13.864a160.856 160.856 0 0 0 14.051-9.108l-9.39-12.953a144.789 144.789 0 0 1-12.65 8.197zM175.787 394.47a160.228 160.228 0 0 0 14.9 7.634l6.539-14.6a143.939 143.939 0 0 1-13.407-6.869zm176.367-31.27l10.688 11.9a161.4 161.4 0 0 0 11.858-11.813l-11.867-10.732a145.267 145.267 0 0 1-10.679 10.645zm35.314-48.352l14.6 6.545a159.379 159.379 0 0 0 6.038-15.623L392.9 300.8a143.733 143.733 0 0 1-5.432 14.048zm-87.197 78.221l4.912 15.227a159.193 159.193 0 0 0 15.652-5.979l-6.49-14.625a143.129 143.129 0 0 1-14.074 5.377zM115.148 225.9L99.5 222.577a160.359 160.359 0 0 0-2.616 16.538l15.912 1.67a144.113 144.113 0 0 1 2.352-14.885zM112 256v-.168H96V256a162.16 162.16 0 0 0 .845 16.535l15.916-1.637A146.2 146.2 0 0 1 112 256zm158.82 143.247l1.625 15.918a160.779 160.779 0 0 0 16.543-2.57l-3.279-15.66a144.624 144.624 0 0 1-14.889 2.312zM124.467 197.3l-14.608-6.529a159.819 159.819 0 0 0-6.019 15.63l15.213 4.955a143.709 143.709 0 0 1 5.414-14.056zm-9.384 88.484l-15.658 3.293a159.813 159.813 0 0 0 4.306 16.191l15.225-4.922a143.21 143.21 0 0 1-3.873-14.562zm281.735.468l15.647 3.346a160.286 160.286 0 0 0 2.635-16.536l-15.911-1.687a144.248 144.248 0 0 1-2.371 14.877zm-237.091-137.34l-10.7-11.894a161.786 161.786 0 0 0-11.845 11.828l11.879 10.718a145.863 145.863 0 0 1 10.666-10.652zm-20.17 22.354l-12.93-9.426a161.147 161.147 0 0 0-9.142 14.023l13.842 8.026a144.622 144.622 0 0 1 8.23-12.623zm44.527-40.051l-8-13.856a161.2 161.2 0 0 0-14.044 9.124l9.406 12.944a144.381 144.381 0 0 1 12.638-8.212z" data-original="#000000" class="active-path" data-old_color="#000000" fill="#5F318C"/><path d="M384 256a128 128 0 1 0-128 128 128.146 128.146 0 0 0 128-128zM256 368a112 112 0 1 1 112-112 112.127 112.127 0 0 1-112 112z" data-original="#000000" class="active-path" data-old_color="#000000" fill="#5F318C"/><path d="M328.971 207.029a24.031 24.031 0 0 0-33.942 0L224 278.059l-15.029-15.03a24 24 0 0 0-33.942 33.942l32 32a24 24 0 0 0 33.942 0l88-88a24 24 0 0 0 0-33.942zm-11.315 22.627l-88 88a8 8 0 0 1-11.312 0l-32-32a8 8 0 0 1 11.314-11.312l20.687 20.685a8 8 0 0 0 11.313 0l76.687-76.685a8 8 0 1 1 11.312 11.312z" data-original="#000000" class="active-path" data-old_color="#000000" fill="#5F318C"/><path d="M256 64C150.131 64 64 150.131 64 256s86.131 192 192 192 192-86.131 192-192S361.869 64 256 64zm0 368c-97.047 0-176-78.953-176-176S158.953 80 256 80s176 78.953 176 176-78.953 176-176 176z" data-original="#000000" class="active-path" data-old_color="#000000" fill="#5F318C"/></g></svg>